<?xml version="1.0" standalone="no"?>
<!DOCTYPE svg PUBLIC "-//W3C//DTD SVG 20010904//EN"
 "http://www.w3.org/TR/2001/REC-SVG-20010904/DTD/svg10.dtd">
<svg version="1.0" xmlns="http://www.w3.org/2000/svg"
 width="512.000000pt" height="512.000000pt" viewBox="0 0 512.000000 512.000000"
 preserveAspectRatio="xMidYMid meet">
<metadata>
Created by potrace 1.14, written by Peter Selinger 2001-2017
</metadata>
<g transform="translate(0.000000,512.000000) scale(0.100000,-0.100000)"
fill="#000000" stroke="none">
<path d="M1180 4885 c641 -128 1166 -232 1166 -231 1 0 38 98 82 216 44 118
83 223 87 233 7 16 -56 17 -1246 16 l-1254 -1 1165 -233z"/>
<path d="M2804 5058 c13 -35 153 -404 310 -821 157 -417 286 -760 286 -763 0
-2 -77 -3 -171 -2 l-171 3 -50 143 -50 142 -304 0 -304 0 0 -185 0 -185 258 0
c288 0 350 -9 453 -60 34 -18 89 -58 122 -89 91 -87 130 -165 147 -297 20
-159 -33 -305 -147 -399 -36 -30 -86 -62 -109 -72 -24 -10 -44 -22 -44 -26 0
-5 82 -162 183 -350 100 -187 184 -344 185 -349 2 -4 -82 -8 -186 -8 l-190 0
-169 330 -168 330 -167 0 -168 0 0 -375 0 -375 535 0 536 0 -3 -143 -3 -142
-302 -3 -303 -2 0 -680 0 -680 465 0 465 0 0 2560 0 2560 -480 0 -479 0 23
-62z"/>
<path d="M2552 4333 c-56 -159 -102 -291 -102 -295 0 -5 95 -8 211 -8 116 0
209 4 207 8 -1 5 -48 138 -102 295 -55 158 -102 287 -105 287 -3 0 -52 -129
-109 -287z"/>
<path d="M2350 2885 l0 -215 243 0 c242 0 243 0 296 26 67 34 103 86 109 159
7 80 -5 121 -46 167 -66 74 -84 78 -359 78 l-243 0 0 -215z"/>
<path d="M1830 2525 l0 -146 148 3 147 3 3 143 3 142 -151 0 -150 0 0 -145z"/>
<path d="M2350 915 c0 -245 -1 -445 -2 -446 -2 0 -527 -105 -1168 -233 l-1165
-234 1228 -1 1227 -1 0 680 0 680 -60 0 -60 0 0 -445z"/>
</g>
</svg>
